<mxfile host="app.diagrams.net" modified="2023-12-10T18:03:41.662Z" agent="Mozilla/5.0 (Windows NT 10.0; Win64; x64) AppleWebKit/537.36 (KHTML, like Gecko) Chrome/118.0.0.0 Safari/537.36 OPR/104.0.0.0" etag="c0orhvLTpWcbgWQZ-v-N" version="22.1.7" type="device">
  <diagram id="C5RBs43oDa-KdzZeNtuy" name="Page-1">
    <mxGraphModel dx="1514" dy="882" grid="1" gridSize="10" guides="1" tooltips="1" connect="1" arrows="1" fold="1" page="1" pageScale="1" pageWidth="1654" pageHeight="1169" math="0" shadow="0">
      <root>
        <mxCell id="WIyWlLk6GJQsqaUBKTNV-0" />
        <mxCell id="WIyWlLk6GJQsqaUBKTNV-1" parent="WIyWlLk6GJQsqaUBKTNV-0" />
        <mxCell id="zkfFHV4jXpPFQw0GAbJ--0" value="HomeController" style="swimlane;fontStyle=2;align=center;verticalAlign=top;childLayout=stackLayout;horizontal=1;startSize=26;horizontalStack=0;resizeParent=1;resizeLast=0;collapsible=1;marginBottom=0;rounded=0;shadow=0;strokeWidth=1;fontSize=14;fillColor=#dae8fc;strokeColor=#6c8ebf;" parent="WIyWlLk6GJQsqaUBKTNV-1" vertex="1">
          <mxGeometry x="110" y="60" width="160" height="190" as="geometry">
            <mxRectangle x="230" y="140" width="160" height="26" as="alternateBounds" />
          </mxGeometry>
        </mxCell>
        <mxCell id="zkfFHV4jXpPFQw0GAbJ--1" value="-EventService" style="text;align=left;verticalAlign=top;spacingLeft=4;spacingRight=4;overflow=hidden;rotatable=0;points=[[0,0.5],[1,0.5]];portConstraint=eastwest;fontSize=14;" parent="zkfFHV4jXpPFQw0GAbJ--0" vertex="1">
          <mxGeometry y="26" width="160" height="26" as="geometry" />
        </mxCell>
        <mxCell id="zkfFHV4jXpPFQw0GAbJ--4" value="" style="line;html=1;strokeWidth=1;align=left;verticalAlign=middle;spacingTop=-1;spacingLeft=3;spacingRight=3;rotatable=0;labelPosition=right;points=[];portConstraint=eastwest;" parent="zkfFHV4jXpPFQw0GAbJ--0" vertex="1">
          <mxGeometry y="52" width="160" height="8" as="geometry" />
        </mxCell>
        <mxCell id="zkfFHV4jXpPFQw0GAbJ--5" value="+showHomePage()&#xa;+showEventEditPage()&#xa;+showOrders()" style="text;align=left;verticalAlign=top;spacingLeft=4;spacingRight=4;overflow=hidden;rotatable=0;points=[[0,0.5],[1,0.5]];portConstraint=eastwest;fontSize=14;" parent="zkfFHV4jXpPFQw0GAbJ--0" vertex="1">
          <mxGeometry y="60" width="160" height="130" as="geometry" />
        </mxCell>
        <mxCell id="UmhokNVA4aVoV33H5FL8-6" value="EventController" style="swimlane;fontStyle=2;align=center;verticalAlign=top;childLayout=stackLayout;horizontal=1;startSize=26;horizontalStack=0;resizeParent=1;resizeLast=0;collapsible=1;marginBottom=0;rounded=0;shadow=0;strokeWidth=1;fontSize=14;fillColor=#dae8fc;strokeColor=#6c8ebf;" vertex="1" parent="WIyWlLk6GJQsqaUBKTNV-1">
          <mxGeometry x="570" y="76" width="200" height="158" as="geometry">
            <mxRectangle x="230" y="140" width="160" height="26" as="alternateBounds" />
          </mxGeometry>
        </mxCell>
        <mxCell id="UmhokNVA4aVoV33H5FL8-7" value="-TicketService" style="text;align=left;verticalAlign=top;spacingLeft=4;spacingRight=4;overflow=hidden;rotatable=0;points=[[0,0.5],[1,0.5]];portConstraint=eastwest;fontSize=14;" vertex="1" parent="UmhokNVA4aVoV33H5FL8-6">
          <mxGeometry y="26" width="200" height="26" as="geometry" />
        </mxCell>
        <mxCell id="UmhokNVA4aVoV33H5FL8-8" value="" style="line;html=1;strokeWidth=1;align=left;verticalAlign=middle;spacingTop=-1;spacingLeft=3;spacingRight=3;rotatable=0;labelPosition=right;points=[];portConstraint=eastwest;" vertex="1" parent="UmhokNVA4aVoV33H5FL8-6">
          <mxGeometry y="52" width="200" height="8" as="geometry" />
        </mxCell>
        <mxCell id="UmhokNVA4aVoV33H5FL8-9" value="+showEventPage()&#xa;+showTicketsPage()&#xa;+showCertainEventEditPage()" style="text;align=left;verticalAlign=top;spacingLeft=4;spacingRight=4;overflow=hidden;rotatable=0;points=[[0,0.5],[1,0.5]];portConstraint=eastwest;fontSize=14;" vertex="1" parent="UmhokNVA4aVoV33H5FL8-6">
          <mxGeometry y="60" width="200" height="98" as="geometry" />
        </mxCell>
        <mxCell id="UmhokNVA4aVoV33H5FL8-10" value="UserController" style="swimlane;fontStyle=2;align=center;verticalAlign=top;childLayout=stackLayout;horizontal=1;startSize=26;horizontalStack=0;resizeParent=1;resizeLast=0;collapsible=1;marginBottom=0;rounded=0;shadow=0;strokeWidth=1;fontSize=14;fillColor=#dae8fc;strokeColor=#6c8ebf;" vertex="1" parent="WIyWlLk6GJQsqaUBKTNV-1">
          <mxGeometry x="330" y="60" width="160" height="190" as="geometry">
            <mxRectangle x="340" y="60" width="160" height="26" as="alternateBounds" />
          </mxGeometry>
        </mxCell>
        <mxCell id="UmhokNVA4aVoV33H5FL8-11" value="-UserService" style="text;align=left;verticalAlign=top;spacingLeft=4;spacingRight=4;overflow=hidden;rotatable=0;points=[[0,0.5],[1,0.5]];portConstraint=eastwest;fontSize=14;" vertex="1" parent="UmhokNVA4aVoV33H5FL8-10">
          <mxGeometry y="26" width="160" height="26" as="geometry" />
        </mxCell>
        <mxCell id="UmhokNVA4aVoV33H5FL8-12" value="" style="line;html=1;strokeWidth=1;align=left;verticalAlign=middle;spacingTop=-1;spacingLeft=3;spacingRight=3;rotatable=0;labelPosition=right;points=[];portConstraint=eastwest;" vertex="1" parent="UmhokNVA4aVoV33H5FL8-10">
          <mxGeometry y="52" width="160" height="8" as="geometry" />
        </mxCell>
        <mxCell id="UmhokNVA4aVoV33H5FL8-13" value="+showLoginPage()&#xa;+showRegisterPage()&#xa;+showUserAccount()&#xa;+showBasket()&#xa;+showPurchase()&#xa;+showReceipt()" style="text;align=left;verticalAlign=top;spacingLeft=4;spacingRight=4;overflow=hidden;rotatable=0;points=[[0,0.5],[1,0.5]];portConstraint=eastwest;fontSize=14;" vertex="1" parent="UmhokNVA4aVoV33H5FL8-10">
          <mxGeometry y="60" width="160" height="130" as="geometry" />
        </mxCell>
        <mxCell id="UmhokNVA4aVoV33H5FL8-14" value="MangementService" style="swimlane;fontStyle=2;align=center;verticalAlign=top;childLayout=stackLayout;horizontal=1;startSize=26;horizontalStack=0;resizeParent=1;resizeLast=0;collapsible=1;marginBottom=0;rounded=0;shadow=0;strokeWidth=1;fontSize=14;fillColor=#dae8fc;strokeColor=#6c8ebf;" vertex="1" parent="WIyWlLk6GJQsqaUBKTNV-1">
          <mxGeometry x="60" y="445" width="160" height="45" as="geometry">
            <mxRectangle x="230" y="140" width="160" height="26" as="alternateBounds" />
          </mxGeometry>
        </mxCell>
        <mxCell id="UmhokNVA4aVoV33H5FL8-18" value="UserService" style="swimlane;fontStyle=2;align=center;verticalAlign=top;childLayout=stackLayout;horizontal=1;startSize=26;horizontalStack=0;resizeParent=1;resizeLast=0;collapsible=1;marginBottom=0;rounded=0;shadow=0;strokeWidth=1;fontSize=14;fillColor=#dae8fc;strokeColor=#6c8ebf;" vertex="1" parent="WIyWlLk6GJQsqaUBKTNV-1">
          <mxGeometry x="330" y="445" width="160" height="45" as="geometry">
            <mxRectangle x="230" y="140" width="160" height="26" as="alternateBounds" />
          </mxGeometry>
        </mxCell>
        <mxCell id="UmhokNVA4aVoV33H5FL8-23" value="TicketService" style="swimlane;fontStyle=2;align=center;verticalAlign=top;childLayout=stackLayout;horizontal=1;startSize=26;horizontalStack=0;resizeParent=1;resizeLast=0;collapsible=1;marginBottom=0;rounded=0;shadow=0;strokeWidth=1;fontSize=14;fillColor=#dae8fc;strokeColor=#6c8ebf;" vertex="1" parent="WIyWlLk6GJQsqaUBKTNV-1">
          <mxGeometry x="590" y="445" width="160" height="45" as="geometry">
            <mxRectangle x="230" y="140" width="160" height="26" as="alternateBounds" />
          </mxGeometry>
        </mxCell>
        <mxCell id="UmhokNVA4aVoV33H5FL8-27" value="Event" style="swimlane;fontStyle=2;align=center;verticalAlign=top;childLayout=stackLayout;horizontal=1;startSize=26;horizontalStack=0;resizeParent=1;resizeLast=0;collapsible=1;marginBottom=0;rounded=0;shadow=0;strokeWidth=1;fontSize=14;fillColor=#dae8fc;strokeColor=#6c8ebf;" vertex="1" parent="WIyWlLk6GJQsqaUBKTNV-1">
          <mxGeometry x="290" y="925" width="160" height="190" as="geometry">
            <mxRectangle x="230" y="140" width="160" height="26" as="alternateBounds" />
          </mxGeometry>
        </mxCell>
        <mxCell id="UmhokNVA4aVoV33H5FL8-28" value="-id&#xa;-title&#xa;-date&#xa;-location&#xa;-ageLimit" style="text;align=left;verticalAlign=top;spacingLeft=4;spacingRight=4;overflow=hidden;rotatable=0;points=[[0,0.5],[1,0.5]];portConstraint=eastwest;fontSize=14;" vertex="1" parent="UmhokNVA4aVoV33H5FL8-27">
          <mxGeometry y="26" width="160" height="94" as="geometry" />
        </mxCell>
        <mxCell id="UmhokNVA4aVoV33H5FL8-29" value="" style="line;html=1;strokeWidth=1;align=left;verticalAlign=middle;spacingTop=-1;spacingLeft=3;spacingRight=3;rotatable=0;labelPosition=right;points=[];portConstraint=eastwest;" vertex="1" parent="UmhokNVA4aVoV33H5FL8-27">
          <mxGeometry y="120" width="160" height="8" as="geometry" />
        </mxCell>
        <mxCell id="UmhokNVA4aVoV33H5FL8-30" value="+getters()&#xa;+setters()" style="text;align=left;verticalAlign=top;spacingLeft=4;spacingRight=4;overflow=hidden;rotatable=0;points=[[0,0.5],[1,0.5]];portConstraint=eastwest;fontSize=14;" vertex="1" parent="UmhokNVA4aVoV33H5FL8-27">
          <mxGeometry y="128" width="160" height="52" as="geometry" />
        </mxCell>
        <mxCell id="UmhokNVA4aVoV33H5FL8-36" value="Ticket" style="swimlane;fontStyle=2;align=center;verticalAlign=top;childLayout=stackLayout;horizontal=1;startSize=26;horizontalStack=0;resizeParent=1;resizeLast=0;collapsible=1;marginBottom=0;rounded=0;shadow=0;strokeWidth=1;fontSize=14;fillColor=#dae8fc;strokeColor=#6c8ebf;" vertex="1" parent="WIyWlLk6GJQsqaUBKTNV-1">
          <mxGeometry x="1000" y="935" width="160" height="170" as="geometry">
            <mxRectangle x="230" y="140" width="160" height="26" as="alternateBounds" />
          </mxGeometry>
        </mxCell>
        <mxCell id="UmhokNVA4aVoV33H5FL8-37" value="-id&#xa;-event : Event&#xa;-ticketTypeName&#xa;-price" style="text;align=left;verticalAlign=top;spacingLeft=4;spacingRight=4;overflow=hidden;rotatable=0;points=[[0,0.5],[1,0.5]];portConstraint=eastwest;fontSize=14;" vertex="1" parent="UmhokNVA4aVoV33H5FL8-36">
          <mxGeometry y="26" width="160" height="80" as="geometry" />
        </mxCell>
        <mxCell id="UmhokNVA4aVoV33H5FL8-38" value="" style="line;html=1;strokeWidth=1;align=left;verticalAlign=middle;spacingTop=-1;spacingLeft=3;spacingRight=3;rotatable=0;labelPosition=right;points=[];portConstraint=eastwest;" vertex="1" parent="UmhokNVA4aVoV33H5FL8-36">
          <mxGeometry y="106" width="160" height="8" as="geometry" />
        </mxCell>
        <mxCell id="UmhokNVA4aVoV33H5FL8-39" value="+getters()&#xa;+setters()" style="text;align=left;verticalAlign=top;spacingLeft=4;spacingRight=4;overflow=hidden;rotatable=0;points=[[0,0.5],[1,0.5]];portConstraint=eastwest;fontSize=14;" vertex="1" parent="UmhokNVA4aVoV33H5FL8-36">
          <mxGeometry y="114" width="160" height="52" as="geometry" />
        </mxCell>
        <mxCell id="UmhokNVA4aVoV33H5FL8-40" value="User" style="swimlane;fontStyle=2;align=center;verticalAlign=top;childLayout=stackLayout;horizontal=1;startSize=26;horizontalStack=0;resizeParent=1;resizeLast=0;collapsible=1;marginBottom=0;rounded=0;shadow=0;strokeWidth=1;fontSize=14;fillColor=#dae8fc;strokeColor=#6c8ebf;" vertex="1" parent="WIyWlLk6GJQsqaUBKTNV-1">
          <mxGeometry x="50" y="910" width="160" height="220" as="geometry">
            <mxRectangle x="230" y="140" width="160" height="26" as="alternateBounds" />
          </mxGeometry>
        </mxCell>
        <mxCell id="UmhokNVA4aVoV33H5FL8-41" value="-id&#xa;-firstName&#xa;-lastName&#xa;-email&#xa;-age&#xa;-password&#xa;-isAdmin" style="text;align=left;verticalAlign=top;spacingLeft=4;spacingRight=4;overflow=hidden;rotatable=0;points=[[0,0.5],[1,0.5]];portConstraint=eastwest;fontSize=14;" vertex="1" parent="UmhokNVA4aVoV33H5FL8-40">
          <mxGeometry y="26" width="160" height="134" as="geometry" />
        </mxCell>
        <mxCell id="UmhokNVA4aVoV33H5FL8-42" value="" style="line;html=1;strokeWidth=1;align=left;verticalAlign=middle;spacingTop=-1;spacingLeft=3;spacingRight=3;rotatable=0;labelPosition=right;points=[];portConstraint=eastwest;" vertex="1" parent="UmhokNVA4aVoV33H5FL8-40">
          <mxGeometry y="160" width="160" height="8" as="geometry" />
        </mxCell>
        <mxCell id="UmhokNVA4aVoV33H5FL8-43" value="+getters()&#xa;+setters()" style="text;align=left;verticalAlign=top;spacingLeft=4;spacingRight=4;overflow=hidden;rotatable=0;points=[[0,0.5],[1,0.5]];portConstraint=eastwest;fontSize=14;" vertex="1" parent="UmhokNVA4aVoV33H5FL8-40">
          <mxGeometry y="168" width="160" height="52" as="geometry" />
        </mxCell>
        <mxCell id="UmhokNVA4aVoV33H5FL8-44" value="Order" style="swimlane;fontStyle=2;align=center;verticalAlign=top;childLayout=stackLayout;horizontal=1;startSize=26;horizontalStack=0;resizeParent=1;resizeLast=0;collapsible=1;marginBottom=0;rounded=0;shadow=0;strokeWidth=1;fontSize=14;fillColor=#dae8fc;strokeColor=#6c8ebf;" vertex="1" parent="WIyWlLk6GJQsqaUBKTNV-1">
          <mxGeometry x="530" y="935" width="160" height="170" as="geometry">
            <mxRectangle x="230" y="140" width="160" height="26" as="alternateBounds" />
          </mxGeometry>
        </mxCell>
        <mxCell id="UmhokNVA4aVoV33H5FL8-45" value="-id&#xa;-user : User&#xa;-totalPrice&#xa;-date" style="text;align=left;verticalAlign=top;spacingLeft=4;spacingRight=4;overflow=hidden;rotatable=0;points=[[0,0.5],[1,0.5]];portConstraint=eastwest;fontSize=14;" vertex="1" parent="UmhokNVA4aVoV33H5FL8-44">
          <mxGeometry y="26" width="160" height="84" as="geometry" />
        </mxCell>
        <mxCell id="UmhokNVA4aVoV33H5FL8-46" value="" style="line;html=1;strokeWidth=1;align=left;verticalAlign=middle;spacingTop=-1;spacingLeft=3;spacingRight=3;rotatable=0;labelPosition=right;points=[];portConstraint=eastwest;" vertex="1" parent="UmhokNVA4aVoV33H5FL8-44">
          <mxGeometry y="110" width="160" height="8" as="geometry" />
        </mxCell>
        <mxCell id="UmhokNVA4aVoV33H5FL8-47" value="+getters()&#xa;+setters()" style="text;align=left;verticalAlign=top;spacingLeft=4;spacingRight=4;overflow=hidden;rotatable=0;points=[[0,0.5],[1,0.5]];portConstraint=eastwest;fontSize=14;" vertex="1" parent="UmhokNVA4aVoV33H5FL8-44">
          <mxGeometry y="118" width="160" height="52" as="geometry" />
        </mxCell>
        <mxCell id="UmhokNVA4aVoV33H5FL8-48" value="OrderDetails    " style="swimlane;fontStyle=2;align=center;verticalAlign=top;childLayout=stackLayout;horizontal=1;startSize=26;horizontalStack=0;resizeParent=1;resizeLast=0;collapsible=1;marginBottom=0;rounded=0;shadow=0;strokeWidth=1;fontSize=14;fillColor=#dae8fc;strokeColor=#6c8ebf;" vertex="1" parent="WIyWlLk6GJQsqaUBKTNV-1">
          <mxGeometry x="760" y="945" width="160" height="150" as="geometry">
            <mxRectangle x="230" y="140" width="160" height="26" as="alternateBounds" />
          </mxGeometry>
        </mxCell>
        <mxCell id="UmhokNVA4aVoV33H5FL8-49" value="-order : Order&#xa;-ticket : Ticket&#xa;-amount" style="text;align=left;verticalAlign=top;spacingLeft=4;spacingRight=4;overflow=hidden;rotatable=0;points=[[0,0.5],[1,0.5]];portConstraint=eastwest;fontSize=14;" vertex="1" parent="UmhokNVA4aVoV33H5FL8-48">
          <mxGeometry y="26" width="160" height="64" as="geometry" />
        </mxCell>
        <mxCell id="UmhokNVA4aVoV33H5FL8-50" value="" style="line;html=1;strokeWidth=1;align=left;verticalAlign=middle;spacingTop=-1;spacingLeft=3;spacingRight=3;rotatable=0;labelPosition=right;points=[];portConstraint=eastwest;" vertex="1" parent="UmhokNVA4aVoV33H5FL8-48">
          <mxGeometry y="90" width="160" height="8" as="geometry" />
        </mxCell>
        <mxCell id="UmhokNVA4aVoV33H5FL8-51" value="+getters()&#xa;+setters()" style="text;align=left;verticalAlign=top;spacingLeft=4;spacingRight=4;overflow=hidden;rotatable=0;points=[[0,0.5],[1,0.5]];portConstraint=eastwest;fontSize=14;" vertex="1" parent="UmhokNVA4aVoV33H5FL8-48">
          <mxGeometry y="98" width="160" height="52" as="geometry" />
        </mxCell>
        <mxCell id="UmhokNVA4aVoV33H5FL8-52" value="DiscountCode" style="swimlane;fontStyle=2;align=center;verticalAlign=top;childLayout=stackLayout;horizontal=1;startSize=26;horizontalStack=0;resizeParent=1;resizeLast=0;collapsible=1;marginBottom=0;rounded=0;shadow=0;strokeWidth=1;fontSize=14;fillColor=#dae8fc;strokeColor=#6c8ebf;" vertex="1" parent="WIyWlLk6GJQsqaUBKTNV-1">
          <mxGeometry x="1230" y="945" width="160" height="150" as="geometry">
            <mxRectangle x="230" y="140" width="160" height="26" as="alternateBounds" />
          </mxGeometry>
        </mxCell>
        <mxCell id="UmhokNVA4aVoV33H5FL8-53" value="-id&#xa;-ticket : Ticket&#xa;-code" style="text;align=left;verticalAlign=top;spacingLeft=4;spacingRight=4;overflow=hidden;rotatable=0;points=[[0,0.5],[1,0.5]];portConstraint=eastwest;fontSize=14;" vertex="1" parent="UmhokNVA4aVoV33H5FL8-52">
          <mxGeometry y="26" width="160" height="64" as="geometry" />
        </mxCell>
        <mxCell id="UmhokNVA4aVoV33H5FL8-54" value="" style="line;html=1;strokeWidth=1;align=left;verticalAlign=middle;spacingTop=-1;spacingLeft=3;spacingRight=3;rotatable=0;labelPosition=right;points=[];portConstraint=eastwest;" vertex="1" parent="UmhokNVA4aVoV33H5FL8-52">
          <mxGeometry y="90" width="160" height="8" as="geometry" />
        </mxCell>
        <mxCell id="UmhokNVA4aVoV33H5FL8-55" value="+getters()&#xa;+setters()" style="text;align=left;verticalAlign=top;spacingLeft=4;spacingRight=4;overflow=hidden;rotatable=0;points=[[0,0.5],[1,0.5]];portConstraint=eastwest;fontSize=14;" vertex="1" parent="UmhokNVA4aVoV33H5FL8-52">
          <mxGeometry y="98" width="160" height="52" as="geometry" />
        </mxCell>
        <mxCell id="UmhokNVA4aVoV33H5FL8-57" value="&lt;p style=&quot;margin: 4px 0px 0px; text-align: center; font-size: 14px;&quot;&gt;&lt;font style=&quot;font-size: 14px;&quot;&gt;&lt;i style=&quot;&quot;&gt;&amp;lt;&amp;lt;Interface&amp;gt;&amp;gt;&lt;/i&gt;&lt;br&gt;&lt;b style=&quot;&quot;&gt;DAOInterface&lt;/b&gt;&lt;/font&gt;&lt;/p&gt;&lt;hr style=&quot;font-size: 14px;&quot; size=&quot;1&quot;&gt;&lt;p style=&quot;margin: 0px 0px 0px 4px; font-size: 14px;&quot;&gt;&lt;font style=&quot;font-size: 14px;&quot;&gt;+findById()&lt;/font&gt;&lt;/p&gt;&lt;p style=&quot;margin: 0px 0px 0px 4px; font-size: 14px;&quot;&gt;&lt;font style=&quot;font-size: 14px;&quot;&gt;+findAll()&lt;/font&gt;&lt;/p&gt;&lt;p style=&quot;margin: 0px 0px 0px 4px; font-size: 14px;&quot;&gt;&lt;font style=&quot;font-size: 14px;&quot;&gt;+update()&lt;/font&gt;&lt;/p&gt;&lt;p style=&quot;margin: 0px 0px 0px 4px; font-size: 14px;&quot;&gt;&lt;font style=&quot;font-size: 14px;&quot;&gt;+delete()&lt;/font&gt;&lt;/p&gt;&lt;p style=&quot;margin: 0px 0px 0px 4px; font-size: 14px;&quot;&gt;&lt;font style=&quot;font-size: 14px;&quot;&gt;+save()&lt;/font&gt;&lt;/p&gt;" style="verticalAlign=top;align=left;overflow=fill;fontSize=12;fontFamily=Helvetica;html=1;whiteSpace=wrap;fillColor=#fff2cc;strokeColor=#d6b656;" vertex="1" parent="WIyWlLk6GJQsqaUBKTNV-1">
          <mxGeometry x="1230" y="95" width="190" height="120" as="geometry" />
        </mxCell>
        <mxCell id="UmhokNVA4aVoV33H5FL8-63" value="&lt;font style=&quot;font-size: 14px;&quot;&gt;&lt;i&gt;OrderDAO&lt;/i&gt;&lt;/font&gt;" style="html=1;whiteSpace=wrap;fillColor=#dae8fc;strokeColor=#6c8ebf;" vertex="1" parent="WIyWlLk6GJQsqaUBKTNV-1">
          <mxGeometry x="555" y="730" width="110" height="40" as="geometry" />
        </mxCell>
        <mxCell id="UmhokNVA4aVoV33H5FL8-64" value="&lt;font style=&quot;font-size: 14px;&quot;&gt;&lt;i&gt;OrderDetailsDAO&lt;/i&gt;&lt;/font&gt;" style="html=1;whiteSpace=wrap;fillColor=#dae8fc;strokeColor=#6c8ebf;" vertex="1" parent="WIyWlLk6GJQsqaUBKTNV-1">
          <mxGeometry x="785" y="730" width="110" height="40" as="geometry" />
        </mxCell>
        <mxCell id="UmhokNVA4aVoV33H5FL8-65" value="&lt;font style=&quot;font-size: 14px;&quot;&gt;&lt;i&gt;EventDAO&lt;/i&gt;&lt;/font&gt;" style="html=1;whiteSpace=wrap;fillColor=#dae8fc;strokeColor=#6c8ebf;" vertex="1" parent="WIyWlLk6GJQsqaUBKTNV-1">
          <mxGeometry x="315" y="730" width="110" height="40" as="geometry" />
        </mxCell>
        <mxCell id="UmhokNVA4aVoV33H5FL8-66" value="&lt;font style=&quot;font-size: 14px;&quot;&gt;&lt;i&gt;DiscountCodeDAO&lt;/i&gt;&lt;/font&gt;" style="html=1;whiteSpace=wrap;fillColor=#dae8fc;strokeColor=#6c8ebf;" vertex="1" parent="WIyWlLk6GJQsqaUBKTNV-1">
          <mxGeometry x="1240" y="730" width="140" height="40" as="geometry" />
        </mxCell>
        <mxCell id="UmhokNVA4aVoV33H5FL8-67" value="&lt;font style=&quot;font-size: 14px;&quot;&gt;&lt;i&gt;UserDAO&lt;/i&gt;&lt;/font&gt;" style="html=1;whiteSpace=wrap;fillColor=#dae8fc;strokeColor=#6c8ebf;" vertex="1" parent="WIyWlLk6GJQsqaUBKTNV-1">
          <mxGeometry x="90" y="730" width="80" height="40" as="geometry" />
        </mxCell>
        <mxCell id="UmhokNVA4aVoV33H5FL8-68" value="&lt;span style=&quot;font-size: 14px;&quot;&gt;&lt;i&gt;TicketDAO&lt;/i&gt;&lt;/span&gt;" style="html=1;whiteSpace=wrap;fillColor=#dae8fc;strokeColor=#6c8ebf;" vertex="1" parent="WIyWlLk6GJQsqaUBKTNV-1">
          <mxGeometry x="1020" y="730" width="120" height="40" as="geometry" />
        </mxCell>
        <mxCell id="UmhokNVA4aVoV33H5FL8-70" value="" style="endArrow=block;dashed=1;endFill=0;endSize=12;html=1;rounded=0;" edge="1" parent="WIyWlLk6GJQsqaUBKTNV-1" source="UmhokNVA4aVoV33H5FL8-64" target="UmhokNVA4aVoV33H5FL8-57">
          <mxGeometry width="160" relative="1" as="geometry">
            <mxPoint x="910" y="670" as="sourcePoint" />
            <mxPoint x="1090" y="560" as="targetPoint" />
          </mxGeometry>
        </mxCell>
        <mxCell id="UmhokNVA4aVoV33H5FL8-71" value="" style="endArrow=block;dashed=1;endFill=0;endSize=12;html=1;rounded=0;" edge="1" parent="WIyWlLk6GJQsqaUBKTNV-1" source="UmhokNVA4aVoV33H5FL8-68" target="UmhokNVA4aVoV33H5FL8-57">
          <mxGeometry width="160" relative="1" as="geometry">
            <mxPoint x="891" y="740" as="sourcePoint" />
            <mxPoint x="1310" y="536" as="targetPoint" />
          </mxGeometry>
        </mxCell>
        <mxCell id="UmhokNVA4aVoV33H5FL8-72" value="" style="endArrow=block;dashed=1;endFill=0;endSize=12;html=1;rounded=0;" edge="1" parent="WIyWlLk6GJQsqaUBKTNV-1" source="UmhokNVA4aVoV33H5FL8-66" target="UmhokNVA4aVoV33H5FL8-57">
          <mxGeometry width="160" relative="1" as="geometry">
            <mxPoint x="901" y="750" as="sourcePoint" />
            <mxPoint x="1320" y="546" as="targetPoint" />
          </mxGeometry>
        </mxCell>
        <mxCell id="UmhokNVA4aVoV33H5FL8-73" value="" style="endArrow=block;dashed=1;endFill=0;endSize=12;html=1;rounded=0;" edge="1" parent="WIyWlLk6GJQsqaUBKTNV-1" source="UmhokNVA4aVoV33H5FL8-63" target="UmhokNVA4aVoV33H5FL8-57">
          <mxGeometry width="160" relative="1" as="geometry">
            <mxPoint x="911" y="760" as="sourcePoint" />
            <mxPoint x="1330" y="556" as="targetPoint" />
          </mxGeometry>
        </mxCell>
        <mxCell id="UmhokNVA4aVoV33H5FL8-74" value="" style="endArrow=block;dashed=1;endFill=0;endSize=12;html=1;rounded=0;" edge="1" parent="WIyWlLk6GJQsqaUBKTNV-1" source="UmhokNVA4aVoV33H5FL8-65" target="UmhokNVA4aVoV33H5FL8-57">
          <mxGeometry width="160" relative="1" as="geometry">
            <mxPoint x="921" y="770" as="sourcePoint" />
            <mxPoint x="1340" y="566" as="targetPoint" />
          </mxGeometry>
        </mxCell>
        <mxCell id="UmhokNVA4aVoV33H5FL8-75" value="" style="endArrow=block;dashed=1;endFill=0;endSize=12;html=1;rounded=0;" edge="1" parent="WIyWlLk6GJQsqaUBKTNV-1" source="UmhokNVA4aVoV33H5FL8-67" target="UmhokNVA4aVoV33H5FL8-57">
          <mxGeometry width="160" relative="1" as="geometry">
            <mxPoint x="931" y="780" as="sourcePoint" />
            <mxPoint x="1350" y="576" as="targetPoint" />
          </mxGeometry>
        </mxCell>
        <mxCell id="UmhokNVA4aVoV33H5FL8-76" value="" style="endArrow=open;html=1;endSize=12;startArrow=diamondThin;startSize=14;startFill=0;edgeStyle=orthogonalEdgeStyle;align=left;verticalAlign=bottom;rounded=0;" edge="1" parent="WIyWlLk6GJQsqaUBKTNV-1" source="UmhokNVA4aVoV33H5FL8-67" target="UmhokNVA4aVoV33H5FL8-40">
          <mxGeometry x="-1" y="3" relative="1" as="geometry">
            <mxPoint x="910" y="400" as="sourcePoint" />
            <mxPoint x="1070" y="400" as="targetPoint" />
            <Array as="points">
              <mxPoint x="130" y="900" />
              <mxPoint x="130" y="900" />
            </Array>
          </mxGeometry>
        </mxCell>
        <mxCell id="UmhokNVA4aVoV33H5FL8-77" value="1" style="edgeLabel;html=1;align=center;verticalAlign=middle;resizable=0;points=[];" vertex="1" connectable="0" parent="UmhokNVA4aVoV33H5FL8-76">
          <mxGeometry x="-0.9438" y="1" relative="1" as="geometry">
            <mxPoint x="9" y="6" as="offset" />
          </mxGeometry>
        </mxCell>
        <mxCell id="UmhokNVA4aVoV33H5FL8-78" value="1" style="edgeLabel;html=1;align=center;verticalAlign=middle;resizable=0;points=[];" vertex="1" connectable="0" parent="UmhokNVA4aVoV33H5FL8-76">
          <mxGeometry x="0.8657" y="-5" relative="1" as="geometry">
            <mxPoint x="15" y="-11" as="offset" />
          </mxGeometry>
        </mxCell>
        <mxCell id="UmhokNVA4aVoV33H5FL8-79" value="" style="endArrow=open;html=1;endSize=12;startArrow=diamondThin;startSize=14;startFill=0;edgeStyle=orthogonalEdgeStyle;align=left;verticalAlign=bottom;rounded=0;" edge="1" parent="WIyWlLk6GJQsqaUBKTNV-1" source="UmhokNVA4aVoV33H5FL8-65" target="UmhokNVA4aVoV33H5FL8-27">
          <mxGeometry x="-1" y="3" relative="1" as="geometry">
            <mxPoint x="369.83" y="770" as="sourcePoint" />
            <mxPoint x="369.83" y="910" as="targetPoint" />
            <Array as="points" />
          </mxGeometry>
        </mxCell>
        <mxCell id="UmhokNVA4aVoV33H5FL8-80" value="1" style="edgeLabel;html=1;align=center;verticalAlign=middle;resizable=0;points=[];" vertex="1" connectable="0" parent="UmhokNVA4aVoV33H5FL8-79">
          <mxGeometry x="-0.9438" y="1" relative="1" as="geometry">
            <mxPoint x="9" y="6" as="offset" />
          </mxGeometry>
        </mxCell>
        <mxCell id="UmhokNVA4aVoV33H5FL8-81" value="1" style="edgeLabel;html=1;align=center;verticalAlign=middle;resizable=0;points=[];" vertex="1" connectable="0" parent="UmhokNVA4aVoV33H5FL8-79">
          <mxGeometry x="0.8657" y="-5" relative="1" as="geometry">
            <mxPoint x="15" y="-11" as="offset" />
          </mxGeometry>
        </mxCell>
        <mxCell id="UmhokNVA4aVoV33H5FL8-82" value="" style="endArrow=open;html=1;endSize=12;startArrow=diamondThin;startSize=14;startFill=0;edgeStyle=orthogonalEdgeStyle;align=left;verticalAlign=bottom;rounded=0;exitX=0.5;exitY=1;exitDx=0;exitDy=0;" edge="1" parent="WIyWlLk6GJQsqaUBKTNV-1" source="UmhokNVA4aVoV33H5FL8-63" target="UmhokNVA4aVoV33H5FL8-44">
          <mxGeometry x="-1" y="3" relative="1" as="geometry">
            <mxPoint x="609.6600000000001" y="795" as="sourcePoint" />
            <mxPoint x="609.6600000000001" y="935" as="targetPoint" />
            <Array as="points" />
          </mxGeometry>
        </mxCell>
        <mxCell id="UmhokNVA4aVoV33H5FL8-83" value="1" style="edgeLabel;html=1;align=center;verticalAlign=middle;resizable=0;points=[];" vertex="1" connectable="0" parent="UmhokNVA4aVoV33H5FL8-82">
          <mxGeometry x="-0.9438" y="1" relative="1" as="geometry">
            <mxPoint x="9" y="6" as="offset" />
          </mxGeometry>
        </mxCell>
        <mxCell id="UmhokNVA4aVoV33H5FL8-84" value="1" style="edgeLabel;html=1;align=center;verticalAlign=middle;resizable=0;points=[];" vertex="1" connectable="0" parent="UmhokNVA4aVoV33H5FL8-82">
          <mxGeometry x="0.8657" y="-5" relative="1" as="geometry">
            <mxPoint x="15" y="-11" as="offset" />
          </mxGeometry>
        </mxCell>
        <mxCell id="UmhokNVA4aVoV33H5FL8-85" value="" style="endArrow=open;html=1;endSize=12;startArrow=diamondThin;startSize=14;startFill=0;edgeStyle=orthogonalEdgeStyle;align=left;verticalAlign=bottom;rounded=0;" edge="1" parent="WIyWlLk6GJQsqaUBKTNV-1" source="UmhokNVA4aVoV33H5FL8-64" target="UmhokNVA4aVoV33H5FL8-48">
          <mxGeometry x="-1" y="3" relative="1" as="geometry">
            <mxPoint x="839.66" y="785" as="sourcePoint" />
            <mxPoint x="839.66" y="925" as="targetPoint" />
            <Array as="points" />
          </mxGeometry>
        </mxCell>
        <mxCell id="UmhokNVA4aVoV33H5FL8-86" value="1" style="edgeLabel;html=1;align=center;verticalAlign=middle;resizable=0;points=[];" vertex="1" connectable="0" parent="UmhokNVA4aVoV33H5FL8-85">
          <mxGeometry x="-0.9438" y="1" relative="1" as="geometry">
            <mxPoint x="9" y="6" as="offset" />
          </mxGeometry>
        </mxCell>
        <mxCell id="UmhokNVA4aVoV33H5FL8-87" value="1" style="edgeLabel;html=1;align=center;verticalAlign=middle;resizable=0;points=[];" vertex="1" connectable="0" parent="UmhokNVA4aVoV33H5FL8-85">
          <mxGeometry x="0.8657" y="-5" relative="1" as="geometry">
            <mxPoint x="15" y="-11" as="offset" />
          </mxGeometry>
        </mxCell>
        <mxCell id="UmhokNVA4aVoV33H5FL8-88" value="" style="endArrow=open;html=1;endSize=12;startArrow=diamondThin;startSize=14;startFill=0;edgeStyle=orthogonalEdgeStyle;align=left;verticalAlign=bottom;rounded=0;" edge="1" parent="WIyWlLk6GJQsqaUBKTNV-1" source="UmhokNVA4aVoV33H5FL8-68" target="UmhokNVA4aVoV33H5FL8-36">
          <mxGeometry x="-1" y="3" relative="1" as="geometry">
            <mxPoint x="1079.66" y="785" as="sourcePoint" />
            <mxPoint x="1079.66" y="925" as="targetPoint" />
            <Array as="points" />
          </mxGeometry>
        </mxCell>
        <mxCell id="UmhokNVA4aVoV33H5FL8-89" value="1" style="edgeLabel;html=1;align=center;verticalAlign=middle;resizable=0;points=[];" vertex="1" connectable="0" parent="UmhokNVA4aVoV33H5FL8-88">
          <mxGeometry x="-0.9438" y="1" relative="1" as="geometry">
            <mxPoint x="9" y="6" as="offset" />
          </mxGeometry>
        </mxCell>
        <mxCell id="UmhokNVA4aVoV33H5FL8-90" value="1" style="edgeLabel;html=1;align=center;verticalAlign=middle;resizable=0;points=[];" vertex="1" connectable="0" parent="UmhokNVA4aVoV33H5FL8-88">
          <mxGeometry x="0.8657" y="-5" relative="1" as="geometry">
            <mxPoint x="15" y="-11" as="offset" />
          </mxGeometry>
        </mxCell>
        <mxCell id="UmhokNVA4aVoV33H5FL8-91" value="" style="endArrow=open;html=1;endSize=12;startArrow=diamondThin;startSize=14;startFill=0;edgeStyle=orthogonalEdgeStyle;align=left;verticalAlign=bottom;rounded=0;" edge="1" parent="WIyWlLk6GJQsqaUBKTNV-1" source="UmhokNVA4aVoV33H5FL8-66" target="UmhokNVA4aVoV33H5FL8-52">
          <mxGeometry x="-1" y="3" relative="1" as="geometry">
            <mxPoint x="1320" y="820" as="sourcePoint" />
            <mxPoint x="1320" y="985" as="targetPoint" />
            <Array as="points" />
          </mxGeometry>
        </mxCell>
        <mxCell id="UmhokNVA4aVoV33H5FL8-92" value="1" style="edgeLabel;html=1;align=center;verticalAlign=middle;resizable=0;points=[];" vertex="1" connectable="0" parent="UmhokNVA4aVoV33H5FL8-91">
          <mxGeometry x="-0.9438" y="1" relative="1" as="geometry">
            <mxPoint x="9" y="6" as="offset" />
          </mxGeometry>
        </mxCell>
        <mxCell id="UmhokNVA4aVoV33H5FL8-93" value="1" style="edgeLabel;html=1;align=center;verticalAlign=middle;resizable=0;points=[];" vertex="1" connectable="0" parent="UmhokNVA4aVoV33H5FL8-91">
          <mxGeometry x="0.8657" y="-5" relative="1" as="geometry">
            <mxPoint x="15" y="-11" as="offset" />
          </mxGeometry>
        </mxCell>
        <mxCell id="UmhokNVA4aVoV33H5FL8-94" value="" style="endArrow=open;html=1;endSize=12;startArrow=diamondThin;startSize=14;startFill=0;edgeStyle=orthogonalEdgeStyle;align=left;verticalAlign=bottom;rounded=0;" edge="1" parent="WIyWlLk6GJQsqaUBKTNV-1" source="UmhokNVA4aVoV33H5FL8-14" target="UmhokNVA4aVoV33H5FL8-65">
          <mxGeometry x="-1" y="3" relative="1" as="geometry">
            <mxPoint x="129.5" y="540" as="sourcePoint" />
            <mxPoint x="129.5" y="680" as="targetPoint" />
            <Array as="points">
              <mxPoint x="130" y="590" />
              <mxPoint x="370" y="590" />
            </Array>
          </mxGeometry>
        </mxCell>
        <mxCell id="UmhokNVA4aVoV33H5FL8-95" value="1" style="edgeLabel;html=1;align=center;verticalAlign=middle;resizable=0;points=[];" vertex="1" connectable="0" parent="UmhokNVA4aVoV33H5FL8-94">
          <mxGeometry x="-0.9438" y="1" relative="1" as="geometry">
            <mxPoint x="9" y="6" as="offset" />
          </mxGeometry>
        </mxCell>
        <mxCell id="UmhokNVA4aVoV33H5FL8-97" value="" style="endArrow=open;html=1;endSize=12;startArrow=diamondThin;startSize=14;startFill=0;edgeStyle=orthogonalEdgeStyle;align=left;verticalAlign=bottom;rounded=0;" edge="1" parent="WIyWlLk6GJQsqaUBKTNV-1" source="UmhokNVA4aVoV33H5FL8-18" target="UmhokNVA4aVoV33H5FL8-67">
          <mxGeometry x="-1" y="3" relative="1" as="geometry">
            <mxPoint x="85" y="610" as="sourcePoint" />
            <mxPoint x="315" y="825" as="targetPoint" />
            <Array as="points">
              <mxPoint x="420" y="630" />
              <mxPoint x="130" y="630" />
            </Array>
          </mxGeometry>
        </mxCell>
        <mxCell id="UmhokNVA4aVoV33H5FL8-98" value="1" style="edgeLabel;html=1;align=center;verticalAlign=middle;resizable=0;points=[];" vertex="1" connectable="0" parent="UmhokNVA4aVoV33H5FL8-97">
          <mxGeometry x="-0.9438" y="1" relative="1" as="geometry">
            <mxPoint x="9" y="6" as="offset" />
          </mxGeometry>
        </mxCell>
        <mxCell id="UmhokNVA4aVoV33H5FL8-99" value="1" style="edgeLabel;html=1;align=center;verticalAlign=middle;resizable=0;points=[];" vertex="1" connectable="0" parent="UmhokNVA4aVoV33H5FL8-97">
          <mxGeometry x="0.8657" y="-5" relative="1" as="geometry">
            <mxPoint x="15" y="14" as="offset" />
          </mxGeometry>
        </mxCell>
        <mxCell id="UmhokNVA4aVoV33H5FL8-103" value="" style="endArrow=open;html=1;endSize=12;startArrow=diamondThin;startSize=14;startFill=0;edgeStyle=orthogonalEdgeStyle;align=left;verticalAlign=bottom;rounded=0;" edge="1" parent="WIyWlLk6GJQsqaUBKTNV-1" source="UmhokNVA4aVoV33H5FL8-23" target="UmhokNVA4aVoV33H5FL8-68">
          <mxGeometry x="-1" y="3" relative="1" as="geometry">
            <mxPoint x="550" y="555" as="sourcePoint" />
            <mxPoint x="260" y="770" as="targetPoint" />
            <Array as="points">
              <mxPoint x="670" y="680" />
              <mxPoint x="1080" y="680" />
            </Array>
          </mxGeometry>
        </mxCell>
        <mxCell id="UmhokNVA4aVoV33H5FL8-104" value="1" style="edgeLabel;html=1;align=center;verticalAlign=middle;resizable=0;points=[];" vertex="1" connectable="0" parent="UmhokNVA4aVoV33H5FL8-103">
          <mxGeometry x="-0.9438" y="1" relative="1" as="geometry">
            <mxPoint x="-6" y="-19" as="offset" />
          </mxGeometry>
        </mxCell>
        <mxCell id="UmhokNVA4aVoV33H5FL8-105" value="1" style="edgeLabel;html=1;align=center;verticalAlign=middle;resizable=0;points=[];" vertex="1" connectable="0" parent="UmhokNVA4aVoV33H5FL8-103">
          <mxGeometry x="0.8657" y="-5" relative="1" as="geometry">
            <mxPoint x="15" y="18" as="offset" />
          </mxGeometry>
        </mxCell>
        <mxCell id="UmhokNVA4aVoV33H5FL8-106" value="" style="endArrow=open;html=1;endSize=12;startArrow=diamondThin;startSize=14;startFill=0;edgeStyle=orthogonalEdgeStyle;align=left;verticalAlign=bottom;rounded=0;entryX=0.451;entryY=0.026;entryDx=0;entryDy=0;entryPerimeter=0;" edge="1" parent="WIyWlLk6GJQsqaUBKTNV-1" source="zkfFHV4jXpPFQw0GAbJ--0" target="UmhokNVA4aVoV33H5FL8-14">
          <mxGeometry x="-1" y="3" relative="1" as="geometry">
            <mxPoint x="120" y="300" as="sourcePoint" />
            <mxPoint x="350" y="515" as="targetPoint" />
            <Array as="points">
              <mxPoint x="190" y="350" />
              <mxPoint x="132" y="350" />
            </Array>
          </mxGeometry>
        </mxCell>
        <mxCell id="UmhokNVA4aVoV33H5FL8-107" value="1" style="edgeLabel;html=1;align=center;verticalAlign=middle;resizable=0;points=[];" vertex="1" connectable="0" parent="UmhokNVA4aVoV33H5FL8-106">
          <mxGeometry x="-0.9438" y="1" relative="1" as="geometry">
            <mxPoint x="9" y="6" as="offset" />
          </mxGeometry>
        </mxCell>
        <mxCell id="UmhokNVA4aVoV33H5FL8-108" value="1" style="edgeLabel;html=1;align=center;verticalAlign=middle;resizable=0;points=[];" vertex="1" connectable="0" parent="UmhokNVA4aVoV33H5FL8-106">
          <mxGeometry x="0.8657" y="-5" relative="1" as="geometry">
            <mxPoint x="15" y="-11" as="offset" />
          </mxGeometry>
        </mxCell>
        <mxCell id="UmhokNVA4aVoV33H5FL8-109" value="" style="endArrow=open;html=1;endSize=12;startArrow=diamondThin;startSize=14;startFill=0;edgeStyle=orthogonalEdgeStyle;align=left;verticalAlign=bottom;rounded=0;" edge="1" parent="WIyWlLk6GJQsqaUBKTNV-1" source="UmhokNVA4aVoV33H5FL8-10" target="UmhokNVA4aVoV33H5FL8-18">
          <mxGeometry x="-1" y="3" relative="1" as="geometry">
            <mxPoint x="290" y="290" as="sourcePoint" />
            <mxPoint x="270" y="475" as="targetPoint" />
            <Array as="points">
              <mxPoint x="410" y="390" />
              <mxPoint x="410" y="390" />
            </Array>
          </mxGeometry>
        </mxCell>
        <mxCell id="UmhokNVA4aVoV33H5FL8-110" value="1" style="edgeLabel;html=1;align=center;verticalAlign=middle;resizable=0;points=[];" vertex="1" connectable="0" parent="UmhokNVA4aVoV33H5FL8-109">
          <mxGeometry x="-0.9438" y="1" relative="1" as="geometry">
            <mxPoint x="9" y="6" as="offset" />
          </mxGeometry>
        </mxCell>
        <mxCell id="UmhokNVA4aVoV33H5FL8-111" value="1" style="edgeLabel;html=1;align=center;verticalAlign=middle;resizable=0;points=[];" vertex="1" connectable="0" parent="UmhokNVA4aVoV33H5FL8-109">
          <mxGeometry x="0.8657" y="-5" relative="1" as="geometry">
            <mxPoint x="15" y="-11" as="offset" />
          </mxGeometry>
        </mxCell>
        <mxCell id="UmhokNVA4aVoV33H5FL8-115" value="" style="endArrow=open;html=1;endSize=12;startArrow=diamondThin;startSize=14;startFill=0;edgeStyle=orthogonalEdgeStyle;align=left;verticalAlign=bottom;rounded=0;" edge="1" parent="WIyWlLk6GJQsqaUBKTNV-1" source="UmhokNVA4aVoV33H5FL8-14" target="UmhokNVA4aVoV33H5FL8-63">
          <mxGeometry x="-1" y="3" relative="1" as="geometry">
            <mxPoint x="180" y="515" as="sourcePoint" />
            <mxPoint x="410" y="730" as="targetPoint" />
            <Array as="points">
              <mxPoint x="180" y="560" />
              <mxPoint x="610" y="560" />
            </Array>
          </mxGeometry>
        </mxCell>
        <mxCell id="UmhokNVA4aVoV33H5FL8-116" value="1" style="edgeLabel;html=1;align=center;verticalAlign=middle;resizable=0;points=[];" vertex="1" connectable="0" parent="UmhokNVA4aVoV33H5FL8-115">
          <mxGeometry x="-0.9438" y="1" relative="1" as="geometry">
            <mxPoint x="9" y="6" as="offset" />
          </mxGeometry>
        </mxCell>
        <mxCell id="UmhokNVA4aVoV33H5FL8-117" value="1" style="edgeLabel;html=1;align=center;verticalAlign=middle;resizable=0;points=[];" vertex="1" connectable="0" parent="UmhokNVA4aVoV33H5FL8-115">
          <mxGeometry x="0.8657" y="-5" relative="1" as="geometry">
            <mxPoint x="15" y="33" as="offset" />
          </mxGeometry>
        </mxCell>
        <mxCell id="UmhokNVA4aVoV33H5FL8-118" value="" style="endArrow=open;html=1;endSize=12;startArrow=diamondThin;startSize=14;startFill=0;edgeStyle=orthogonalEdgeStyle;align=left;verticalAlign=bottom;rounded=0;" edge="1" parent="WIyWlLk6GJQsqaUBKTNV-1" source="UmhokNVA4aVoV33H5FL8-14" target="UmhokNVA4aVoV33H5FL8-64">
          <mxGeometry x="-1" y="3" relative="1" as="geometry">
            <mxPoint x="190" y="525" as="sourcePoint" />
            <mxPoint x="620" y="740" as="targetPoint" />
            <Array as="points">
              <mxPoint x="210" y="570" />
              <mxPoint x="840" y="570" />
            </Array>
          </mxGeometry>
        </mxCell>
        <mxCell id="UmhokNVA4aVoV33H5FL8-119" value="1" style="edgeLabel;html=1;align=center;verticalAlign=middle;resizable=0;points=[];" vertex="1" connectable="0" parent="UmhokNVA4aVoV33H5FL8-118">
          <mxGeometry x="-0.9438" y="1" relative="1" as="geometry">
            <mxPoint x="9" y="-8" as="offset" />
          </mxGeometry>
        </mxCell>
        <mxCell id="UmhokNVA4aVoV33H5FL8-120" value="1" style="edgeLabel;html=1;align=center;verticalAlign=middle;resizable=0;points=[];" vertex="1" connectable="0" parent="UmhokNVA4aVoV33H5FL8-118">
          <mxGeometry x="0.8657" y="-5" relative="1" as="geometry">
            <mxPoint x="15" y="37" as="offset" />
          </mxGeometry>
        </mxCell>
        <mxCell id="UmhokNVA4aVoV33H5FL8-121" value="" style="endArrow=open;html=1;endSize=12;startArrow=diamondThin;startSize=14;startFill=0;edgeStyle=orthogonalEdgeStyle;align=left;verticalAlign=bottom;rounded=0;exitX=0.75;exitY=1;exitDx=0;exitDy=0;" edge="1" parent="WIyWlLk6GJQsqaUBKTNV-1" source="UmhokNVA4aVoV33H5FL8-18" target="UmhokNVA4aVoV33H5FL8-66">
          <mxGeometry x="-1" y="3" relative="1" as="geometry">
            <mxPoint x="430" y="525" as="sourcePoint" />
            <mxPoint x="140" y="740" as="targetPoint" />
            <Array as="points">
              <mxPoint x="450" y="630" />
              <mxPoint x="1300" y="630" />
            </Array>
          </mxGeometry>
        </mxCell>
        <mxCell id="UmhokNVA4aVoV33H5FL8-122" value="1" style="edgeLabel;html=1;align=center;verticalAlign=middle;resizable=0;points=[];" vertex="1" connectable="0" parent="UmhokNVA4aVoV33H5FL8-121">
          <mxGeometry x="-0.9438" y="1" relative="1" as="geometry">
            <mxPoint x="9" y="-15" as="offset" />
          </mxGeometry>
        </mxCell>
        <mxCell id="UmhokNVA4aVoV33H5FL8-123" value="1" style="edgeLabel;html=1;align=center;verticalAlign=middle;resizable=0;points=[];" vertex="1" connectable="0" parent="UmhokNVA4aVoV33H5FL8-121">
          <mxGeometry x="0.8657" y="-5" relative="1" as="geometry">
            <mxPoint x="15" y="52" as="offset" />
          </mxGeometry>
        </mxCell>
        <mxCell id="UmhokNVA4aVoV33H5FL8-124" value="" style="endArrow=open;html=1;endSize=12;startArrow=diamondThin;startSize=14;startFill=0;edgeStyle=orthogonalEdgeStyle;align=left;verticalAlign=bottom;rounded=0;" edge="1" parent="WIyWlLk6GJQsqaUBKTNV-1" source="UmhokNVA4aVoV33H5FL8-23" target="UmhokNVA4aVoV33H5FL8-65">
          <mxGeometry x="-1" y="3" relative="1" as="geometry">
            <mxPoint x="760" y="490" as="sourcePoint" />
            <mxPoint x="1090" y="740" as="targetPoint" />
            <Array as="points">
              <mxPoint x="640" y="680" />
              <mxPoint x="390" y="680" />
            </Array>
          </mxGeometry>
        </mxCell>
        <mxCell id="UmhokNVA4aVoV33H5FL8-125" value="1" style="edgeLabel;html=1;align=center;verticalAlign=middle;resizable=0;points=[];" vertex="1" connectable="0" parent="UmhokNVA4aVoV33H5FL8-124">
          <mxGeometry x="-0.9438" y="1" relative="1" as="geometry">
            <mxPoint x="-7" y="6" as="offset" />
          </mxGeometry>
        </mxCell>
        <mxCell id="UmhokNVA4aVoV33H5FL8-126" value="1" style="edgeLabel;html=1;align=center;verticalAlign=middle;resizable=0;points=[];" vertex="1" connectable="0" parent="UmhokNVA4aVoV33H5FL8-124">
          <mxGeometry x="0.8657" y="-5" relative="1" as="geometry">
            <mxPoint x="15" y="11" as="offset" />
          </mxGeometry>
        </mxCell>
        <mxCell id="UmhokNVA4aVoV33H5FL8-134" value="" style="endArrow=open;html=1;endSize=12;startArrow=diamondThin;startSize=14;startFill=0;edgeStyle=orthogonalEdgeStyle;align=left;verticalAlign=bottom;rounded=0;" edge="1" parent="WIyWlLk6GJQsqaUBKTNV-1">
          <mxGeometry x="-1" y="3" relative="1" as="geometry">
            <mxPoint x="150" y="490" as="sourcePoint" />
            <mxPoint x="1320.0000000000005" y="730" as="targetPoint" />
            <Array as="points">
              <mxPoint x="150" y="550" />
              <mxPoint x="1320" y="550" />
            </Array>
          </mxGeometry>
        </mxCell>
        <mxCell id="UmhokNVA4aVoV33H5FL8-135" value="1" style="edgeLabel;html=1;align=center;verticalAlign=middle;resizable=0;points=[];" vertex="1" connectable="0" parent="UmhokNVA4aVoV33H5FL8-134">
          <mxGeometry x="-0.9438" y="1" relative="1" as="geometry">
            <mxPoint x="9" y="-15" as="offset" />
          </mxGeometry>
        </mxCell>
        <mxCell id="UmhokNVA4aVoV33H5FL8-136" value="1" style="edgeLabel;html=1;align=center;verticalAlign=middle;resizable=0;points=[];" vertex="1" connectable="0" parent="UmhokNVA4aVoV33H5FL8-134">
          <mxGeometry x="0.8657" y="-5" relative="1" as="geometry">
            <mxPoint x="15" y="52" as="offset" />
          </mxGeometry>
        </mxCell>
        <mxCell id="UmhokNVA4aVoV33H5FL8-137" value="1" style="edgeLabel;html=1;align=center;verticalAlign=middle;resizable=0;points=[];" vertex="1" connectable="0" parent="WIyWlLk6GJQsqaUBKTNV-1">
          <mxGeometry x="400" y="721.0000000000002" as="geometry">
            <mxPoint x="-44" y="-9" as="offset" />
          </mxGeometry>
        </mxCell>
        <mxCell id="UmhokNVA4aVoV33H5FL8-139" value="" style="endArrow=open;html=1;endSize=12;startArrow=diamondThin;startSize=14;startFill=0;edgeStyle=orthogonalEdgeStyle;align=left;verticalAlign=bottom;rounded=0;" edge="1" parent="WIyWlLk6GJQsqaUBKTNV-1" source="UmhokNVA4aVoV33H5FL8-6" target="UmhokNVA4aVoV33H5FL8-23">
          <mxGeometry x="-1" y="3" relative="1" as="geometry">
            <mxPoint x="663.95" y="260" as="sourcePoint" />
            <mxPoint x="670" y="460" as="targetPoint" />
            <Array as="points" />
          </mxGeometry>
        </mxCell>
        <mxCell id="UmhokNVA4aVoV33H5FL8-140" value="1" style="edgeLabel;html=1;align=center;verticalAlign=middle;resizable=0;points=[];" vertex="1" connectable="0" parent="UmhokNVA4aVoV33H5FL8-139">
          <mxGeometry x="-0.9438" y="1" relative="1" as="geometry">
            <mxPoint x="9" y="6" as="offset" />
          </mxGeometry>
        </mxCell>
        <mxCell id="UmhokNVA4aVoV33H5FL8-141" value="1" style="edgeLabel;html=1;align=center;verticalAlign=middle;resizable=0;points=[];" vertex="1" connectable="0" parent="UmhokNVA4aVoV33H5FL8-139">
          <mxGeometry x="0.8657" y="-5" relative="1" as="geometry">
            <mxPoint x="15" y="-11" as="offset" />
          </mxGeometry>
        </mxCell>
      </root>
    </mxGraphModel>
  </diagram>
</mxfile>
